<svg width="258" height="258" viewBox="0 0 258 258" fill="none" xmlns="http://www.w3.org/2000/svg">
<circle cx="128.887" cy="128.887" r="124.062" fill="black" stroke="white" stroke-width="7.87692"/>
<path fill-rule="evenodd" clip-rule="evenodd" d="M206.255 147.222C204.031 157.371 194.55 185.181 163.471 200.056L150.365 185.495L128.356 207.426C115.622 207.489 87.0597 202.576 67.0526 175.338C67.0526 175.338 71.2313 176.382 74.1912 176.437C77.6576 176.5 81.4248 175.236 81.4248 169.451V112.386C81.7968 107.645 77.1986 101.24 69.506 102.982C59.6845 105.212 52.0869 129.513 52.0869 129.513C52.1186 100.235 67.4088 80.2427 79.0505 70.3054C93.5889 57.8877 107.739 53.7824 118.59 52.087C107.874 58.1467 101.843 68.0369 101.843 76.318C101.843 89.6306 109.948 88.0529 112.346 86.0905V163.101C112.346 163.101 112.82 164.341 113.944 165.817C115.559 167.944 118.519 170.542 123.315 170.542C131.435 170.542 141.96 161.358 141.96 161.358V99.0028C141.96 92.6605 137.133 84.9995 132.313 82.3699C132.313 82.3699 141.248 80.7765 148.157 86.0356C149.653 84.2381 151.054 82.731 152.28 81.53C168.346 65.8705 183.502 61.4356 196.125 59.1828H196.141C196.141 59.1828 173.166 77.0716 173.166 101.067C173.166 118.917 173.633 162.449 173.633 162.449C182.149 170.621 194.811 158.839 206.255 147.222Z" fill="white"/>
</svg>
